REM MD5 32a8e5ec044b5fa1e1d0cdb39e4ef6bd
FILE "Striker - World Cup Premiere Stage (Japan).bin" BINARY
  TRACK 01 MODE2/2352
    INDEX 01 00:00:00
  TRACK 02 AUDIO
    INDEX 00 06:22:42
    INDEX 01 06:24:42
  TRACK 03 AUDIO
    INDEX 00 35:15:19
    INDEX 01 35:17:19
REM LEADOUT 38:17:20
